<svg width="121" height="40" fill="none" xmlns="http://www.w3.org/2000/svg"><path d="M110.799 0h-100.6c-.367 0-.73 0-1.095.002-.306.002-.61.008-.919.013-.671.008-1.341.067-2.004.177a6.665 6.665 0 00-1.9.627A6.438 6.438 0 00.857 5.522 12.993 12.993 0 00.68 7.524c-.01.306-.01.614-.015.92V31.56c.005.31.006.611.015.922.008.67.068 1.34.18 2.002.11.663.32 1.305.624 1.904a6.2 6.2 0 001.179 1.614 6.3 6.3 0 001.618 1.179 6.7 6.7 0 001.901.63c.663.11 1.333.169 2.004.177.31.007.613.011.919.011.366.002.728.002 1.095.002h100.6c.359 0 .724 0 1.084-.002.305 0 .617-.004.922-.01a13.27 13.27 0 002-.177 6.794 6.794 0 001.908-.631A6.26 6.26 0 00118.33 38a6.403 6.403 0 001.182-1.614c.302-.6.51-1.242.619-1.904.111-.662.173-1.331.185-2.002.004-.311.004-.612.004-.922.008-.364.008-.725.008-1.094V9.536c0-.366 0-.73-.008-1.092 0-.306 0-.614-.004-.92a13.57 13.57 0 00-.185-2.002 6.648 6.648 0 00-.619-1.904 6.469 6.469 0 00-2.799-2.8 6.77 6.77 0 00-1.908-.627c-.661-.11-1.33-.169-2-.176-.305-.005-.617-.011-.922-.013-.36-.002-.725-.002-1.084-.002z" fill="#A6A6A6"/><path d="M9.109 39.125c-.305 0-.602-.004-.904-.01a12.696 12.696 0 01-1.87-.164 5.884 5.884 0 01-1.656-.548 5.406 5.406 0 01-1.397-1.016 5.321 5.321 0 01-1.02-1.397 5.722 5.722 0 01-.544-1.657 12.413 12.413 0 01-.166-1.875c-.007-.21-.015-.913-.015-.913v-23.1s.009-.692.015-.895a12.37 12.37 0 01.165-1.872 5.756 5.756 0 01.544-1.662c.26-.518.603-.99 1.015-1.398A5.565 5.565 0 016.332 1.05c.62-.1 1.247-.155 1.875-.163L9.11.875h102.769l.913.013a12.37 12.37 0 011.858.162 5.922 5.922 0 011.671.548 5.589 5.589 0 012.415 2.42c.261.52.441 1.076.536 1.649.103.624.161 1.255.173 1.887.003.283.003.588.003.89.008.375.008.732.008 1.092v20.929c0 .363 0 .718-.008 1.075 0 .325 0 .623-.004.93a12.53 12.53 0 01-.171 1.853 5.716 5.716 0 01-.54 1.67 5.47 5.47 0 01-1.015 1.386 5.414 5.414 0 01-1.4 1.022 5.855 5.855 0 01-1.668.55c-.618.101-1.242.156-1.869.163-.293.007-.599.011-.897.011l-1.084.002-101.69-.002z" fill="#000"/><path d="M43.652 11.568H41.08v.631h1.927c-.052.516-.259.92-.607 1.214-.349.294-.794.442-1.32.442a2.01 2.01 0 01-1.467-.596c-.392-.405-.592-.905-.592-1.508s.2-1.103.592-1.508c.401-.397.89-.595 1.467-.595.296 0 .579.05.838.161s.467.266.629.464l.489-.485a2.202 2.202 0 00-.851-.582A2.926 2.926 0 0041.08 9c-.77 0-1.422.265-1.956.794-.533.53-.8 1.184-.8 1.957 0 .772.267 1.427.8 1.956.533.53 1.186.795 1.956.795.809 0 1.453-.258 1.95-.78.436-.434.659-1.022.659-1.758a2.57 2.57 0 00-.037-.396zm.996-2.45v5.266h3.097v-.647H45.33v-1.67h2.178v-.632H45.33v-1.67h2.415v-.647h-3.097zm7.441.648v-.648h-3.646v.648h1.482v4.618h.682V9.766h1.482zm3.3-.648h-.68v5.266h.68V9.118zm4.5.648v-.648h-3.645v.648h1.482v4.618h.682V9.766h1.482zm6.88.037C66.243 9.265 65.6 9 64.83 9c-.771 0-1.416.265-1.942.794-.526.523-.785 1.178-.785 1.957 0 .779.259 1.434.785 1.956.526.53 1.17.795 1.942.795.763 0 1.414-.266 1.94-.795.527-.522.786-1.177.786-1.956 0-.773-.26-1.426-.786-1.948zm-3.393.44a1.96 1.96 0 011.453-.595c.577 0 1.06.198 1.445.595.392.39.585.898.585 1.508 0 .611-.193 1.118-.585 1.508-.386.396-.868.596-1.445.596-.579 0-1.06-.2-1.453-.596-.384-.398-.577-.897-.577-1.508 0-.61.193-1.11.577-1.508zm5.798.861l-.029-1.016h.03l2.696 4.296h.712V9.118h-.682v3.081l.03 1.016h-.03l-2.578-4.097h-.83v5.266h.681v-3.28z" fill="#D9D9D9"/><path d="M96.135 29.259h1.645V18.32h-1.645v10.94zm14.815-6.998l-1.885 4.742h-.056l-1.957-4.742h-1.772l2.935 6.628-1.674 3.687h1.716l4.523-10.315h-1.83zm-9.328 5.756c-.538 0-1.29-.268-1.29-.93 0-.844.936-1.167 1.744-1.167.723 0 1.064.154 1.503.365a1.99 1.99 0 01-1.957 1.732zm.199-5.995c-1.191 0-2.424.52-2.934 1.674l1.459.605c.312-.605.893-.802 1.503-.802.851 0 1.716.507 1.73 1.408v.112c-.298-.169-.936-.422-1.716-.422-1.574 0-3.176.858-3.176 2.462 0 1.464 1.29 2.407 2.736 2.407 1.106 0 1.717-.492 2.098-1.07h.058v.845h1.588v-4.194c0-1.942-1.461-3.026-3.346-3.026zm-10.165 1.57h-2.34v-3.75h2.34a1.902 1.902 0 011.927 1.876c0 .847-.698 1.874-1.927 1.874zm-.043-5.272h-3.94v10.94h1.643v-4.144h2.297c1.823 0 3.615-1.31 3.615-3.397 0-2.087-1.792-3.398-3.615-3.398zm-21.491 9.7c-1.137 0-2.088-.945-2.088-2.241 0-1.312.951-2.27 2.088-2.27 1.121 0 2.002.958 2.002 2.27 0 1.296-.88 2.24-2.002 2.24zm1.888-5.146h-.056c-.37-.437-1.08-.831-1.974-.831-1.875 0-3.593 1.635-3.593 3.735 0 2.086 1.718 3.708 3.593 3.708.894 0 1.604-.395 1.974-.846h.056v.535c0 1.425-.767 2.185-2.002 2.185-1.008 0-1.633-.718-1.889-1.324l-1.434.592c.412.986 1.505 2.199 3.323 2.199 1.932 0 3.565-1.128 3.565-3.877v-6.682H72.01v.606zm2.7 6.386h1.646V18.32h-1.647v10.94zm4.074-3.609c-.042-1.438 1.123-2.17 1.96-2.17.654 0 1.207.324 1.392.789l-3.352 1.381zm5.113-1.24c-.313-.832-1.264-2.368-3.21-2.368-1.931 0-3.536 1.508-3.536 3.721 0 2.086 1.59 3.722 3.72 3.722 1.719 0 2.713-1.043 3.125-1.65l-1.278-.846c-.426.62-1.008 1.03-1.846 1.03-.838 0-1.434-.381-1.817-1.128l5.012-2.058-.17-.423zm-39.938-1.226v1.578h3.805c-.113.888-.412 1.537-.866 1.988-.554.55-1.42 1.156-2.94 1.156-2.343 0-4.175-1.875-4.175-4.2 0-2.327 1.832-4.202 4.176-4.202 1.263 0 2.186.494 2.868 1.128l1.122-1.114c-.951-.902-2.215-1.593-3.99-1.593-3.21 0-5.909 2.594-5.909 5.78 0 3.186 2.699 5.78 5.909 5.78 1.732 0 3.039-.564 4.06-1.622 1.052-1.043 1.379-2.509 1.379-3.693a5.12 5.12 0 00-.086-.986H43.96zm9.765 4.835c-1.136 0-2.116-.93-2.116-2.256 0-1.339.98-2.255 2.116-2.255 1.136 0 2.116.916 2.116 2.255 0 1.325-.98 2.256-2.116 2.256zm0-5.977c-2.073 0-3.763 1.564-3.763 3.721 0 2.143 1.69 3.722 3.763 3.722 2.074 0 3.764-1.58 3.764-3.722 0-2.157-1.69-3.721-3.764-3.721zm8.21 5.977c-1.136 0-2.116-.93-2.116-2.256 0-1.339.98-2.255 2.116-2.255 1.136 0 2.115.916 2.115 2.255 0 1.325-.98 2.256-2.116 2.256zm0-5.977c-2.074 0-3.763 1.564-3.763 3.721 0 2.143 1.69 3.722 3.763 3.722s3.763-1.58 3.763-3.722c0-2.157-1.69-3.721-3.764-3.721z" fill="#fff"/><path d="M20.135 20.005l-9.385 9.888.002.005a2.53 2.53 0 002.448 1.865 2.54 2.54 0 001.286-.347l.03-.017 10.564-6.051-4.945-5.343z" fill="#EB3131"/><path d="M29.63 18.321l-.01-.006-4.56-2.624-5.138 4.538 5.156 5.118 4.536-2.599a2.515 2.515 0 001.336-2.218c0-.953-.533-1.781-1.32-2.209z" fill="#F6B60B"/><path d="M10.75 11.127a2.45 2.45 0 00-.086.647v17.472c0 .224.03.44.087.647l9.707-9.635-9.708-9.131z" fill="#5778C5"/><path d="M20.204 20.51l4.858-4.82L14.51 9.616a2.555 2.555 0 00-1.31-.36 2.533 2.533 0 00-2.45 1.867v.003l9.454 9.383z" fill="#3BAD49"/></svg>