<svg width="24" height="18" fill="none" xmlns="http://www.w3.org/2000/svg"><g clip-path="url(#clip0_172_261)"><rect y=".375" width="24" height="17.25" rx="3" fill="#FFDA2C"/><path d="M21.714.375H2.286A2.293 2.293 0 000 2.675v12.65c0 1.27 1.023 2.3 2.286 2.3h19.428a2.293 2.293 0 002.286-2.3V2.675c0-1.27-1.023-2.3-2.286-2.3z" fill="#FFDA2C"/><path fill-rule="evenodd" clip-rule="evenodd" d="M0 .375l24 16.1-.14 1.265L0 17.625V.375z" fill="#1A47B8"/><path fill-rule="evenodd" clip-rule="evenodd" d="M1.143 3.825h1.143v1.15H1.143v-1.15zm3.428 2.3h1.143v1.15H4.571v-1.15zM8 8.425h1.143v1.15H8v-1.15zm3.429 2.3h1.143v1.15h-1.143v-1.15zm3.428 2.3H16v1.15h-1.143v-1.15zm3.429 2.3h1.143v1.15h-1.143v-1.15z" fill="#fff"/></g><defs><clipPath id="clip0_172_261"><rect y=".375" width="24" height="17.25" rx="3" fill="#fff"/></clipPath></defs></svg>