<svg width="24" height="18" fill="none" xmlns="http://www.w3.org/2000/svg"><g clip-path="url(#clip0_172_255)"><rect y=".375" width="24" height="17.25" rx="3" fill="#F93939"/><path d="M21.714.375H2.286A2.293 2.293 0 000 2.675v12.65c0 1.27 1.023 2.3 2.286 2.3h19.428a2.293 2.293 0 002.286-2.3V2.675c0-1.27-1.023-2.3-2.286-2.3z" fill="#F93939"/><path fill-rule="evenodd" clip-rule="evenodd" d="M12 4.975l-1.714-1.15-1.143 1.15h1.143l-1.143 1.15-2.286-1.15v5.75l3.429-1.15-1.143 2.3H8l1.143 1.15 1.143-1.15 1.714 2.3v-9.2zm1.714-1.15l1.143 1.15h-1.143l1.143 1.15 2.286-1.15v5.75l-3.429-1.15 1.143 2.3H16l-1.143 1.15-1.143-1.15-1.714 2.3v-9.2l1.714-1.15z" fill="#151515"/></g><defs><clipPath id="clip0_172_255"><rect y=".375" width="24" height="17.25" rx="3" fill="#fff"/></clipPath></defs></svg>