<svg width="117" height="27" fill="none" xmlns="http://www.w3.org/2000/svg"><path d="M6.22 20.422V4.768H.164v-3.44h16.33v3.44h-6.056v15.654H6.22zm16.65.298c-1.46 0-2.731-.289-3.813-.867a6.354 6.354 0 01-2.487-2.491c-.577-1.066-.865-2.338-.865-3.82 0-1.462.288-2.726.865-3.79a6.171 6.171 0 012.488-2.465c1.08-.578 2.352-.867 3.811-.867 1.46 0 2.731.289 3.813.867a5.958 5.958 0 012.487 2.464c.595 1.066.892 2.33.892 3.792 0 1.48-.297 2.753-.892 3.819a6.128 6.128 0 01-2.487 2.491c-1.082.578-2.352.867-3.813.867zm0-3.087c.937 0 1.676-.334 2.216-1.003.56-.668.839-1.697.839-3.087 0-1.39-.28-2.41-.838-3.06-.541-.65-1.28-.975-2.218-.975-.937 0-1.685.325-2.244.975-.54.65-.81 1.67-.81 3.06 0 1.39.27 2.42.81 3.087.56.669 1.307 1.003 2.244 1.003zm16.343 8.856c-1.316 0-2.487-.136-3.515-.407a9.012 9.012 0 01-2.757-1.164l.784-2.925a7.708 7.708 0 001.595.785 8.67 8.67 0 001.757.46c.613.11 1.217.163 1.812.163 1.207 0 2.108-.289 2.703-.866.595-.578.892-1.4.892-2.465v-2.844h.27c-.288.867-.864 1.562-1.73 2.086-.865.523-1.838.785-2.92.785-1.225 0-2.297-.28-3.217-.84-.9-.56-1.604-1.354-2.108-2.383-.505-1.029-.757-2.239-.757-3.629 0-1.39.252-2.6.757-3.63.504-1.028 1.207-1.814 2.108-2.355.92-.56 1.992-.84 3.218-.84 1.1 0 2.063.262 2.893.785.847.506 1.414 1.183 1.703 2.032l-.217-.109.27-2.437h3.948c-.072.596-.126 1.2-.162 1.814a29.19 29.19 0 00-.054 1.76v9.345c0 2.22-.622 3.918-1.866 5.091-1.243 1.192-3.046 1.788-5.407 1.788zm.108-9.48c.956 0 1.712-.324 2.271-.974.559-.65.838-1.58.838-2.79s-.279-2.13-.838-2.762c-.559-.65-1.316-.975-2.27-.975-.992 0-1.776.325-2.353.975-.559.631-.838 1.552-.838 2.762s.28 2.14.838 2.79c.577.65 1.36.975 2.352.975zM56.7 20.72c-2.379 0-4.235-.641-5.57-1.923-1.333-1.282-2-3.024-2-5.227 0-1.426.28-2.672.838-3.737a6.33 6.33 0 012.38-2.492c1.027-.614 2.225-.921 3.595-.921 1.352 0 2.479.289 3.38.867.919.577 1.604 1.39 2.054 2.437.469 1.03.703 2.23.703 3.602v.948h-9.597v-2.031h6.623l-.46.38c0-1.138-.233-1.996-.702-2.574-.45-.596-1.109-.894-1.974-.894-.955 0-1.694.353-2.217 1.057-.504.704-.757 1.715-.757 3.033v.433c0 1.336.325 2.33.974 2.98.666.65 1.622.974 2.865.974.74 0 1.433-.09 2.082-.27a6.567 6.567 0 001.893-.921l1.135 2.708a7.7 7.7 0 01-2.379 1.165 9.732 9.732 0 01-2.866.406zm14.299 0c-1.785 0-3.127-.442-4.028-1.327-.902-.903-1.352-2.248-1.352-4.036V9.752h-2.596v-3.06h2.596V3.333L69.7 2.33v4.36h3.515v3.061H69.7v5.39c0 .867.18 1.462.54 1.787.361.325.82.488 1.38.488.342 0 .621-.018.838-.054.234-.054.477-.127.73-.217v3.169a4.362 4.362 0 01-1.082.298A5.91 5.91 0 0171 20.72zm4.311-.298V.49h4.083v8.775h-.406c.433-.921 1.073-1.625 1.92-2.113.847-.487 1.82-.731 2.92-.731 1.604 0 2.803.47 3.596 1.408.793.921 1.19 2.338 1.19 4.252v8.342H84.53V12.27c0-.957-.18-1.643-.54-2.058-.343-.416-.884-.623-1.623-.623-.901 0-1.622.28-2.163.84-.54.56-.811 1.308-.811 2.247v7.746h-4.082zm23.475.298c-2.379 0-4.235-.641-5.57-1.923-1.333-1.282-2-3.024-2-5.227 0-1.426.28-2.672.838-3.737a6.329 6.329 0 012.38-2.492c1.027-.614 2.225-.921 3.595-.921 1.352 0 2.479.289 3.38.867.919.577 1.604 1.39 2.055 2.437.468 1.03.702 2.23.702 3.602v.948h-9.597v-2.031h6.623l-.459.38c0-1.138-.234-1.996-.703-2.574-.45-.596-1.108-.894-1.974-.894-.955 0-1.694.353-2.217 1.057-.504.704-.757 1.715-.757 3.033v.433c0 1.336.325 2.33.974 2.98.667.65 1.622.974 2.865.974.74 0 1.433-.09 2.082-.27a6.57 6.57 0 001.893-.921l1.135 2.708a7.703 7.703 0 01-2.379 1.165 9.73 9.73 0 01-2.866.406zm7.944-.298V10.32c0-.596-.018-1.2-.055-1.815a20.007 20.007 0 00-.135-1.814h3.921l.459 4.008h-.622c.181-.975.469-1.778.865-2.41.415-.632.92-1.102 1.514-1.409.613-.307 1.307-.46 2.082-.46.343 0 .613.018.811.054.199.018.397.063.595.136l-.027 3.602c-.378-.163-.703-.262-.973-.298a4.786 4.786 0 00-.974-.081c-.757 0-1.387.144-1.892.433-.487.289-.856.713-1.109 1.273-.234.56-.351 1.237-.351 2.031v6.852h-4.109z" fill="#353535"/></svg>