<svg width="120" height="40" fill="none" xmlns="http://www.w3.org/2000/svg"><path d="M110.463 0H9.863c-.367 0-.73 0-1.095.002-.306.002-.61.008-.919.013-.671.008-1.341.067-2.004.177a6.665 6.665 0 00-1.9.627A6.438 6.438 0 00.521 5.522a12.993 12.993 0 00-.179 2.002c-.009.306-.01.614-.015.92V31.56c.005.31.006.611.015.922.008.67.068 1.34.18 2.002.11.663.32 1.305.624 1.904a6.2 6.2 0 001.179 1.614 6.3 6.3 0 001.618 1.179 6.7 6.7 0 001.901.63c.663.11 1.333.169 2.004.177.31.007.613.011.92.011.365.002.727.002 1.094.002h100.6c.359 0 .725 0 1.084-.002.305 0 .617-.004.922-.01.67-.009 1.339-.068 2-.177a6.794 6.794 0 001.908-.631A6.26 6.26 0 00117.994 38a6.403 6.403 0 001.182-1.614 6.59 6.59 0 00.619-1.904c.111-.662.173-1.331.185-2.002.004-.311.004-.612.004-.922.008-.364.008-.725.008-1.094V9.536c0-.366 0-.73-.008-1.092 0-.306 0-.614-.004-.92a13.57 13.57 0 00-.185-2.002 6.648 6.648 0 00-.619-1.904 6.464 6.464 0 00-2.799-2.8 6.76 6.76 0 00-1.908-.627c-.661-.11-1.33-.169-2-.176-.305-.005-.617-.011-.922-.013C111.188 0 110.822 0 110.463 0z" fill="#A6A6A6"/><path d="M8.773 39.125c-.305 0-.602-.004-.904-.01a12.696 12.696 0 01-1.87-.164 5.884 5.884 0 01-1.656-.548 5.406 5.406 0 01-1.397-1.016 5.321 5.321 0 01-1.02-1.397 5.722 5.722 0 01-.544-1.657 12.415 12.415 0 01-.166-1.875c-.007-.21-.015-.913-.015-.913v-23.1s.009-.692.015-.895a12.37 12.37 0 01.165-1.872 5.756 5.756 0 01.544-1.662c.26-.518.603-.99 1.015-1.398A5.565 5.565 0 015.996 1.05C6.616.95 7.243.895 7.87.887l.902-.012h102.769l.913.013c.623.007 1.244.061 1.859.162a5.926 5.926 0 011.67.548 5.589 5.589 0 012.415 2.42c.261.52.441 1.076.536 1.649.103.624.162 1.255.173 1.887.003.283.003.588.003.89.008.375.008.732.008 1.092v20.929c0 .363 0 .718-.008 1.075 0 .325 0 .623-.004.93-.011.62-.068 1.24-.17 1.853a5.776 5.776 0 01-.54 1.67c-.264.513-.607.98-1.016 1.386a5.426 5.426 0 01-1.399 1.022 5.875 5.875 0 01-1.668.55c-.619.101-1.243.156-1.87.163-.293.007-.599.011-.897.011l-1.084.002-101.69-.002z" fill="#000"/><g clip-path="url(#clip0_302_452)" fill-rule="evenodd" clip-rule="evenodd"><path d="M18.397 9.2C13.713 9.2 12 10.913 12 15.596v10.008C12 30.287 13.713 32 18.397 32H28.4c4.684 0 6.4-1.713 6.4-6.396V15.596c0-4.683-1.713-6.396-6.397-6.396H18.397z" fill="url(#paint0_linear_302_452)"/><path d="M21.945 22.424h.916l-.46-1.069-.456 1.069zm-.225.538l-.272.621h-.618l1.315-2.983h.534l1.31 2.983h-.635l-.268-.621H21.72zm9.95.619h.597V20.6h-.598v2.98zm-2.38-1.28h1.102v-.544h-1.101v-.611h1.599v-.544h-2.197v2.98h2.254v-.543h-1.656V22.3zm-2.374.352L26.24 20.6h-.495l-.677 2.053-.66-2.051h-.644l1.04 2.983h.502l.678-1.96.679 1.96h.505l1.038-2.983h-.628l-.66 2.05zm-6.998-.344c0 .485-.241.744-.679.744-.44 0-.682-.267-.682-.765v-1.686h-.606v1.707c0 .84.467 1.32 1.28 1.32.821 0 1.292-.49 1.292-1.345V20.6h-.605v1.709zM16.506 20.6h.606v2.985h-.606v-1.212H15.14v1.212h-.606V20.6h.606v1.204h1.367V20.6zm6.894-3.8a3.804 3.804 0 01-3.8-3.8h.537c0 1.8 1.464 3.263 3.263 3.263 1.8 0 3.263-1.464 3.263-3.263h.537c0 2.095-1.705 3.8-3.8 3.8z" fill="#fff"/></g><path d="M44.888 20.373L41.914 29h-1.798l3.746-9.953h1.149l-.123 1.326zM47.376 29l-2.98-8.627-.13-1.326h1.155L49.18 29h-1.805zm-.144-3.691v1.36h-5.414v-1.36h5.414zm4.43-2.284v8.819h-1.647v-10.24h1.517l.13 1.421zm4.82 2.208v.144c0 .538-.064 1.037-.192 1.497a3.656 3.656 0 01-.554 1.196c-.241.338-.54.6-.895.786-.356.187-.766.28-1.23.28-.46 0-.864-.084-1.21-.252a2.48 2.48 0 01-.869-.732 3.969 3.969 0 01-.574-1.107 7.113 7.113 0 01-.3-1.408v-.554a7.55 7.55 0 01.3-1.477 4 4 0 01.574-1.141c.237-.32.527-.565.868-.738.342-.174.741-.26 1.197-.26.465 0 .877.09 1.237.273a2.5 2.5 0 01.91.766c.245.328.43.724.553 1.19.123.46.184.972.184 1.537zm-1.648.144v-.144c0-.341-.032-.658-.096-.95a2.482 2.482 0 00-.3-.78 1.472 1.472 0 00-.527-.519 1.432 1.432 0 00-.759-.191c-.291 0-.542.05-.752.15a1.43 1.43 0 00-.526.404 1.92 1.92 0 00-.328.608 3.642 3.642 0 00-.164.745v1.326c.055.329.148.63.28.903.132.273.32.492.56.656.247.16.561.24.944.24.296 0 .55-.065.759-.192.21-.128.38-.303.513-.527.136-.227.236-.49.3-.786.064-.296.096-.61.096-.943zm4.703-2.352v8.819H57.89v-10.24h1.517l.13 1.421zm4.82 2.208v.144c0 .538-.064 1.037-.192 1.497a3.656 3.656 0 01-.554 1.196c-.241.338-.54.6-.895.786-.356.187-.766.28-1.23.28-.46 0-.864-.084-1.21-.252a2.48 2.48 0 01-.869-.732 3.969 3.969 0 01-.574-1.107 7.113 7.113 0 01-.3-1.408v-.554a7.55 7.55 0 01.3-1.477 4 4 0 01.574-1.141c.237-.32.527-.565.868-.738.342-.174.741-.26 1.197-.26.465 0 .877.09 1.237.273a2.5 2.5 0 01.91.766c.245.328.43.724.553 1.19.123.46.184.972.184 1.537zm-1.648.144v-.144c0-.341-.032-.658-.096-.95a2.482 2.482 0 00-.3-.78 1.472 1.472 0 00-.527-.519 1.432 1.432 0 00-.759-.191c-.291 0-.542.05-.752.15a1.43 1.43 0 00-.526.404 1.92 1.92 0 00-.328.608 3.642 3.642 0 00-.164.745v1.326c.055.329.148.63.28.903.132.273.32.492.56.656.247.16.561.24.944.24.296 0 .55-.065.759-.192.21-.128.38-.303.513-.527.136-.227.236-.49.3-.786.064-.296.096-.61.096-.943zm10.855-1.463v3.8c-.14.188-.362.393-.663.616-.296.219-.69.408-1.182.568-.492.159-1.105.239-1.84.239a4.545 4.545 0 01-1.715-.315 3.757 3.757 0 01-1.347-.936 4.287 4.287 0 01-.868-1.497c-.205-.593-.307-1.267-.307-2.024v-.69c0-.752.093-1.422.28-2.01a4.267 4.267 0 01.82-1.504 3.43 3.43 0 011.285-.93c.506-.214 1.078-.32 1.716-.32.816 0 1.49.136 2.024.41.537.268.952.642 1.244 1.12.291.479.476 1.026.553 1.641h-1.681a2.647 2.647 0 00-.322-.93 1.627 1.627 0 00-.67-.642c-.287-.16-.66-.24-1.12-.24a2.31 2.31 0 00-1.046.226c-.301.15-.552.372-.752.663a3.254 3.254 0 00-.445 1.067c-.1.419-.15.897-.15 1.435v.704c0 .547.057 1.033.17 1.456.12.424.288.782.507 1.073.223.292.494.513.813.664.32.145.68.218 1.08.218.392 0 .714-.032.964-.095.25-.069.449-.148.595-.24a1.86 1.86 0 00.349-.273v-1.976h-2.072v-1.278h3.78zm5.907 3.603v-3.528c0-.264-.048-.492-.144-.683a1.005 1.005 0 00-.437-.445c-.192-.105-.433-.157-.725-.157-.269 0-.501.046-.697.137a1.127 1.127 0 00-.458.369.89.89 0 00-.164.526h-1.64c0-.291.07-.574.211-.847.141-.274.346-.518.615-.732.27-.214.59-.383.964-.506a4.008 4.008 0 011.258-.184c.556 0 1.048.093 1.477.28.432.187.772.47 1.018.848.25.373.376.843.376 1.408v3.288c0 .337.023.64.068.91.05.264.121.494.212.69V29h-1.688a2.917 2.917 0 01-.185-.677 5.528 5.528 0 01-.061-.806zm.239-3.015l.014 1.018H78.54c-.305 0-.574.03-.807.09a1.657 1.657 0 00-.58.245c-.156.11-.272.242-.35.397a1.16 1.16 0 00-.115.526c0 .196.045.376.136.54.091.16.224.285.397.376.177.091.392.137.642.137.337 0 .631-.068.882-.205a1.81 1.81 0 00.602-.513c.145-.205.223-.398.232-.58l.533.73a2.502 2.502 0 01-.28.602c-.132.214-.305.42-.52.616a2.584 2.584 0 01-1.77.656c-.483 0-.914-.096-1.292-.287a2.297 2.297 0 01-.889-.787 2.039 2.039 0 01-.321-1.127c0-.392.073-.739.219-1.04.15-.305.369-.56.656-.765.292-.205.647-.36 1.066-.465.42-.11.898-.164 1.436-.164h1.292zm4.901-6.002V29h-1.654V18.5h1.654zm3.569 0V29h-1.655V18.5h1.655zm5.065 10.637a3.944 3.944 0 01-1.483-.267 3.275 3.275 0 01-1.121-.759 3.364 3.364 0 01-.705-1.141 3.999 3.999 0 01-.246-1.415v-.274c0-.578.085-1.103.253-1.572.169-.47.404-.87.704-1.203a3.039 3.039 0 011.067-.773c.41-.177.854-.266 1.333-.266.529 0 .991.089 1.388.266.396.178.724.429.984.752.264.32.46.7.588 1.142a5.1 5.1 0 01.198 1.463v.704H90.49V24.61h4.088v-.13a2.312 2.312 0 00-.178-.834 1.417 1.417 0 00-.485-.628c-.219-.16-.51-.24-.875-.24-.273 0-.517.06-.731.178-.21.114-.385.28-.527.5a2.63 2.63 0 00-.328.792 4.45 4.45 0 00-.11 1.032v.274c0 .323.044.624.13.902.092.273.224.513.397.718.173.205.383.367.629.485.246.114.526.171.84.171.397 0 .75-.08 1.06-.24.31-.159.58-.384.807-.676l.868.84c-.16.233-.367.457-.622.67-.255.21-.567.381-.936.514a3.727 3.727 0 01-1.272.198zm5.9-6.125V29h-1.648v-7.396h1.572l.075 1.408zm2.262-1.456l-.013 1.53a4.271 4.271 0 00-.67-.055 2.105 2.105 0 00-.746.124 1.403 1.403 0 00-.54.342c-.14.146-.25.324-.328.533-.077.21-.123.445-.136.704l-.376.028c0-.465.045-.896.136-1.292.092-.397.228-.745.41-1.046.187-.301.42-.536.698-.704a1.87 1.87 0 01.977-.253 2.066 2.066 0 01.588.089zm3.302 6.637l2.01-6.59h1.763l-2.966 8.525c-.069.182-.158.38-.267.595a2.683 2.683 0 01-.431.608 1.906 1.906 0 01-.649.472c-.26.123-.574.184-.943.184-.146 0-.288-.013-.424-.04a6.844 6.844 0 01-.376-.076l-.007-1.258a3.55 3.55 0 00.328.021c.274 0 .501-.034.684-.103a.949.949 0 00.444-.314c.118-.146.219-.342.301-.588l.533-1.436zm-1.135-6.59l1.757 5.538.294 1.736-1.142.294-2.686-7.567h1.777z" fill="#fff"/><path d="M45.04 11.977v.359a3.8 3.8 0 01-.161 1.148c-.107.339-.26.627-.461.864a2 2 0 01-.723.543 2.266 2.266 0 01-.937.187c-.336 0-.645-.062-.926-.187a2.082 2.082 0 01-.727-.543 2.53 2.53 0 01-.472-.864 3.648 3.648 0 01-.168-1.148v-.36c0-.427.054-.808.164-1.144.112-.339.27-.626.473-.863.203-.24.444-.422.722-.547.282-.125.59-.188.926-.188.346 0 .659.063.938.188.28.125.522.307.722.547.203.237.358.524.465.863.11.336.164.717.164 1.145zm-.747.359v-.367a3.46 3.46 0 00-.105-.899 1.862 1.862 0 00-.301-.656 1.298 1.298 0 00-.489-.402 1.482 1.482 0 00-.648-.137c-.234 0-.447.046-.637.137a1.349 1.349 0 00-.484.402 1.966 1.966 0 00-.309.656c-.073.26-.11.56-.11.899v.367c0 .341.037.643.11.906.073.26.177.48.313.66.138.177.3.312.488.403.19.09.402.136.637.136.245 0 .462-.045.652-.136.19-.091.35-.226.48-.403.133-.18.234-.4.301-.66a3.65 3.65 0 00.102-.906zm3.973.434h-1.52v-.614h1.52c.294 0 .532-.047.715-.14a.877.877 0 00.398-.391c.086-.167.129-.357.129-.57 0-.196-.043-.38-.13-.551a.952.952 0 00-.398-.414c-.182-.107-.42-.16-.714-.16h-1.344V15h-.754V9.312h2.098c.43 0 .793.075 1.09.223.296.149.522.354.675.617.154.26.23.559.23.895 0 .364-.076.676-.23.933a1.473 1.473 0 01-.675.59c-.297.133-.66.2-1.09.2zm6.562 1.617V15h-3.012v-.613h3.012zm-2.86-5.075V15h-.753V9.312h.754zm2.462 2.446v.613h-2.614v-.613h2.614zm.36-2.445v.617h-2.974v-.617h2.973zm5.347 0V15h-.758l-2.863-4.387V15h-.754V9.312h.754l2.875 4.399V9.312h.746zm4.129 0V15h-.754V9.312h.754zm5.746 0V15h-.758l-2.863-4.387V15h-.754V9.312h.754l2.875 4.399V9.312h.746z" fill="#D9D9D9"/><defs><linearGradient id="paint0_linear_302_452" x1="1152" y1="9.2" x2="1152" y2="2289.2" gradientUnits="userSpaceOnUse"><stop stop-color="#FB6361"/><stop offset="1" stop-color="#ED3E45"/></linearGradient><clipPath id="clip0_302_452"><path fill="#fff" transform="translate(11 8)" d="M0 0h24v24H0z"/></clipPath></defs></svg>