<svg width="481" height="109" fill="none" xmlns="http://www.w3.org/2000/svg"><path d="M25.112 83.567V17.94H0V3.52h67.712v14.42H42.6v65.627H25.112zm69.038 1.249c-6.054 0-11.323-1.212-15.808-3.634-4.409-2.498-7.847-5.98-10.313-10.445-2.392-4.466-3.588-9.803-3.588-16.01 0-6.131 1.196-11.43 3.588-15.896 2.466-4.466 5.904-7.91 10.314-10.332 4.484-2.422 9.753-3.633 15.806-3.633 6.054 0 11.323 1.21 15.807 3.633 4.484 2.422 7.922 5.866 10.314 10.332 2.466 4.466 3.699 9.765 3.699 15.896 0 6.207-1.233 11.544-3.699 16.01-2.392 4.465-5.83 7.947-10.314 10.445-4.484 2.422-9.753 3.634-15.807 3.634zm0-12.944c3.886 0 6.95-1.4 9.192-4.201 2.317-2.8 3.475-7.115 3.475-12.944 0-5.828-1.158-10.105-3.475-12.83-2.242-2.725-5.306-4.088-9.193-4.088-3.886 0-6.988 1.363-9.304 4.088-2.242 2.725-3.364 7.002-3.364 12.83 0 5.829 1.122 10.143 3.364 12.944 2.316 2.8 5.418 4.2 9.304 4.2zM161.919 109c-5.456 0-10.314-.568-14.574-1.703-4.26-1.06-8.071-2.687-11.435-4.882l3.251-12.263a31.804 31.804 0 006.615 3.293 35.73 35.73 0 007.287 1.93 42.64 42.64 0 007.511.681c5.007 0 8.744-1.21 11.21-3.633 2.466-2.422 3.7-5.866 3.7-10.332V70.169h1.121c-1.196 3.633-3.588 6.547-7.175 8.743-3.587 2.195-7.623 3.292-12.107 3.292-5.083 0-9.529-1.173-13.341-3.52-3.737-2.346-6.652-5.677-8.744-9.991-2.093-4.315-3.139-9.386-3.139-15.215 0-5.828 1.046-10.9 3.139-15.215 2.092-4.314 5.007-7.607 8.744-9.878 3.812-2.346 8.258-3.52 13.341-3.52 4.559 0 8.557 1.098 11.995 3.293 3.513 2.12 5.867 4.958 7.062 8.516l-.896-.454L176.605 26h16.367a125.386 125.386 0 00-.673 7.607 123.952 123.952 0 00-.224 7.38V80.16c0 9.31-2.578 16.426-7.735 21.346-5.157 4.996-12.631 7.494-22.421 7.494zm.448-39.74c3.961 0 7.1-1.362 9.417-4.087 2.317-2.725 3.475-6.623 3.475-11.695 0-5.071-1.158-8.932-3.475-11.581-2.317-2.725-5.456-4.088-9.417-4.088-4.11 0-7.361 1.363-9.753 4.088-2.317 2.65-3.475 6.51-3.475 11.581 0 5.072 1.158 8.97 3.475 11.695 2.392 2.725 5.643 4.087 9.753 4.087zm72.063 15.556c-9.865 0-17.563-2.688-23.094-8.062-5.53-5.374-8.295-12.679-8.295-21.913 0-5.98 1.158-11.203 3.475-15.67 2.391-4.465 5.68-7.947 9.865-10.445 4.26-2.574 9.23-3.86 14.91-3.86 5.605 0 10.277 1.21 14.013 3.633 3.812 2.422 6.652 5.828 8.52 10.219 1.944 4.314 2.915 9.348 2.915 15.1v3.975h-39.797v-8.516h27.466l-1.906 1.59c0-4.77-.972-8.365-2.915-10.787-1.868-2.498-4.596-3.747-8.184-3.747-3.961 0-7.025 1.476-9.192 4.428-2.093 2.953-3.139 7.191-3.139 12.717v1.817c0 5.601 1.345 9.764 4.035 12.49 2.766 2.724 6.727 4.087 11.884 4.087 3.064 0 5.941-.379 8.632-1.135 2.765-.833 5.381-2.12 7.847-3.861l4.709 11.354c-2.84 2.12-6.129 3.747-9.866 4.882-3.662 1.136-7.623 1.704-11.883 1.704zm59.29 0c-7.399 0-12.967-1.855-16.704-5.564-3.737-3.785-5.605-9.424-5.605-16.918V38.831h-10.762v-12.83h10.762v-14.08l16.928-4.2V26h14.574v12.83h-14.574v22.595c0 3.633.747 6.131 2.242 7.494 1.495 1.362 3.401 2.043 5.717 2.043 1.42 0 2.579-.075 3.476-.226.971-.228 1.98-.53 3.026-.909v13.284a17.913 17.913 0 01-4.484 1.25 24.235 24.235 0 01-4.596.454zm17.879-1.249V0h16.928v36.788h-1.682c1.794-3.86 4.447-6.813 7.96-8.857 3.512-2.044 7.548-3.065 12.107-3.065 6.652 0 11.622 1.968 14.91 5.904 3.289 3.86 4.933 9.802 4.933 17.826v34.97h-16.928V49.392c0-4.012-.747-6.889-2.242-8.63-1.42-1.74-3.662-2.611-6.726-2.611-3.737 0-6.727 1.173-8.969 3.52-2.242 2.346-3.363 5.488-3.363 9.424v32.473h-16.928zm97.339 1.249c-9.865 0-17.563-2.688-23.094-8.062-5.53-5.374-8.295-12.679-8.295-21.913 0-5.98 1.158-11.203 3.475-15.67 2.391-4.465 5.68-7.947 9.865-10.445 4.26-2.574 9.23-3.86 14.91-3.86 5.605 0 10.277 1.21 14.013 3.633 3.812 2.422 6.652 5.828 8.52 10.219 1.944 4.314 2.915 9.348 2.915 15.1v3.975H391.45v-8.516h27.466l-1.906 1.59c0-4.77-.972-8.365-2.915-10.787-1.868-2.498-4.596-3.747-8.184-3.747-3.961 0-7.025 1.476-9.192 4.428-2.093 2.953-3.139 7.191-3.139 12.717v1.817c0 5.601 1.345 9.764 4.035 12.49 2.766 2.724 6.727 4.087 11.884 4.087 3.064 0 5.941-.379 8.632-1.135 2.765-.833 5.381-2.12 7.847-3.861l4.709 11.354c-2.84 2.12-6.129 3.747-9.866 4.882-3.662 1.136-7.623 1.704-11.883 1.704zm32.937-1.249V41.216c0-2.498-.074-5.034-.224-7.608a85.124 85.124 0 00-.56-7.607h16.255l1.906 16.804h-2.579c.748-4.087 1.943-7.456 3.588-10.105 1.718-2.65 3.811-4.617 6.277-5.904 2.541-1.287 5.419-1.93 8.633-1.93 1.42 0 2.541.075 3.363.227a9.684 9.684 0 012.466.567l-.112 15.101c-1.57-.68-2.915-1.097-4.036-1.248-1.046-.228-2.391-.341-4.036-.341-3.139 0-5.754.605-7.847 1.817-2.018 1.21-3.55 2.99-4.596 5.336-.972 2.346-1.458 5.185-1.458 8.516v28.726h-17.04z" fill="#353535"/></svg>