<svg width="276" height="72" fill="none" xmlns="http://www.w3.org/2000/svg"><path d="M51.301 30.454c5.294 0 6.485 2.304 6.485 5.178 0 3.046-1.44 5.228-6.463 5.228-4.99 0-6.433-2.055-6.433-5.228 0-3.123 1.572-5.178 6.411-5.178zm55.327 0c5.295 0 6.486 2.304 6.486 5.178 0 3.046-1.443 5.228-6.464 5.228-4.988 0-6.433-2.055-6.433-5.228 0-3.123 1.573-5.178 6.411-5.178z" fill="#394149"/><path fill-rule="evenodd" clip-rule="evenodd" d="M4.428 65.583V5.651h267.54v59.932H4.428zm127.509-3.38h136.656V9.031H131.937v53.17zm-80.61-16.241c9.398 0 13.35-4.062 13.35-10.407 0-6.447-4.451-10.28-13.35-10.28-8.763 0-13.376 4.163-13.376 10.28 0 6.904 4.839 10.407 13.375 10.407zm-32.678-20.23v19.926h18.97V40.35H25.512V25.732h-6.863zm67.258 19.926l-.177-1.93a12.13 12.13 0 01-7.904 2.234c-4.23 0-7.752-1.27-9.728-3.832a10.495 10.495 0 01-1.874-6.397 9.921 9.921 0 011.931-6.22c2-2.486 5.624-4.136 11.019-4.136 6.207 0 9.854 1.904 11.423 5.102a6.84 6.84 0 01.584 2.385h-6.566a2.706 2.706 0 00-.886-1.27 6.972 6.972 0 00-4.433-1.14 6.517 6.517 0 00-5.118 1.599 5.517 5.517 0 00-1.037 3.73 5.647 5.647 0 00.962 3.58 6.651 6.651 0 005.243 1.75 7.312 7.312 0 005.218-1.624 3.19 3.19 0 00.633-1.352h-7.066v-4.282h13.222v11.803h-5.446zm20.747.304c9.397 0 13.35-4.062 13.35-10.407 0-6.447-4.458-10.28-13.35-10.28-8.763 0-13.376 4.163-13.376 10.28 0 6.904 4.839 10.407 13.376 10.407z" fill="#394149"/><path d="M143.497 45.581V25.656h4.893V45.58h-4.893zm30.017-8.325c-1.24 1.624-3.374 2.367-6.382 2.385-.635 0-9.045-.025-9.045-.025v5.966h-4.788V25.656h13.834a7.924 7.924 0 016.155 2.005 7.35 7.35 0 011.495 5 7.194 7.194 0 01-1.269 4.595zm-3.926-6.497c-.506-.76-1.597-1.183-3.445-1.183h-8.081v6.066h8.029c1.975 0 3.016-.406 3.497-1.194.285-.555.409-1.18.355-1.802a3.868 3.868 0 00-.355-1.887zm19.304 15.127c-9.019 0-11.779-3.381-11.779-6.727h5.117c0 1.65 2.254 2.895 6.89 2.895 4.609 0 5.826-.814 5.826-2.134 0-1.472-.911-1.929-5.193-2.41-.844-.077-3.14-.355-4.002-.482-6.074-.687-8.412-2.489-8.412-5.712 0-3.402 3.421-5.964 10.843-5.964 8.056 0 11.147 3.173 11.147 6.472h-5.062c0-1.675-1.899-2.64-6.384-2.64-4.611 0-5.598.634-5.598 1.878 0 1.295 1.013 1.7 5.905 2.284 1.116.154 3.597.433 4.281.507 5.169.532 7.499 2.41 7.499 5.736-.009 3.96-3.555 6.297-11.078 6.297zm25.486-.026c-6.61 0-10.918-2.615-10.918-8.114v-12.09h4.837v12.158c0 2.513 2.054 4.187 6.283 4.187 3.825 0 6.106-1.572 6.106-4.187V25.656h4.788v12.541c0 5-4.004 7.663-11.096 7.663zm37.314-.279v-13.3l-6.207 13.3h-4.711l-6.029-13.3v13.3h-4.556V25.656h6.172l6.84 15.178 6.991-15.178h6.074V45.58h-4.574z" fill="#394149"/></svg>