<svg width="167" height="308" fill="none" xmlns="http://www.w3.org/2000/svg"><path d="M45.882 211.398v-20.153c0-12.578 2.43-24.156 7.29-34.733 4.859-10.863 13.15-22.298 24.87-34.304 8.29-8.576 14.15-16.151 17.58-22.726 3.43-6.861 5.146-13.436 5.146-19.725 0-8.29-3.144-14.722-9.434-19.296-6.289-4.574-15.008-6.861-26.156-6.861-11.15 0-22.44 1.858-33.876 5.574C20.154 62.891 9.72 67.75 0 73.754V19.296c10.291-6.003 22.155-10.72 35.59-14.15C49.312 1.716 62.605 0 75.47 0c17.152 0 32.589 2.573 46.31 7.718 14.008 4.86 24.871 12.436 32.589 22.727 8.004 10.291 12.006 23.727 12.006 40.307 0 9.434-1.715 18.581-5.145 27.443-3.431 8.862-8.29 17.152-14.579 24.871-6.004 7.718-13.15 15.008-21.44 21.868-14.008 11.435-23.727 21.297-29.159 29.588-5.145 8.004-8.29 16.008-9.433 24.012l-1.716 12.864h-39.02zm-15.437 95.623v-68.608h69.894v68.608H30.445z" fill="#E5876C"/></svg>