<svg width="254" height="249" fill="none" xmlns="http://www.w3.org/2000/svg"><g filter="url(#filter0_f_302_1748)"><path fill-rule="evenodd" clip-rule="evenodd" d="M145.803 26.915c25.163-.415 54.25-9.928 72.209 7.821 18.002 17.792 10.824 47.348 9.257 72.696-1.423 23.038-4.577 45.263-17.716 64.18-16.431 23.658-35.212 50.302-63.75 53.112-29.935 2.948-55.847-18.258-77.575-39.195-22.344-21.531-45.76-47.001-44.15-78.097C25.65 77.118 50.723 53.748 75.922 37.08c20.448-13.526 45.418-9.761 69.882-10.165z" fill="#FFE7E0" fill-opacity=".5"/></g><path d="M160.54 107H151V77c0-3.3-2.7-6-6-6h-24c-3.3 0-6 2.7-6 6v30h-9.54c-5.34 0-8.04 6.48-4.26 10.26l27.54 27.54a5.975 5.975 0 008.46 0l27.54-27.54c3.78-3.78 1.14-10.26-4.2-10.26zM91 167c0 3.3 2.7 6 6 6h72c3.3 0 6-2.7 6-6s-2.7-6-6-6H97c-3.3 0-6 2.7-6 6z" fill="#E5876C"/><defs><filter id="filter0_f_302_1748" x="0" y="0" width="254" height="249" filterUnits="userSpaceOnUse" color-interpolation-filters="sRGB"><feFlood flood-opacity="0" result="BackgroundImageFix"/><feBlend in="SourceGraphic" in2="BackgroundImageFix" result="shape"/><feGaussianBlur stdDeviation="12" result="effect1_foregroundBlur_302_1748"/></filter></defs></svg>