<svg width="263" height="259" fill="none" xmlns="http://www.w3.org/2000/svg"><g filter="url(#filter0_f_169_3049)"><path fill-rule="evenodd" clip-rule="evenodd" d="M142.51 24.273c26.101 1.26 52.55 7.699 70.562 26.701 17.645 18.617 19.595 45.233 21.879 70.825 2.622 29.385 10.841 62.113-7.997 84.759-19.641 23.61-54.521 33.002-84.444 26.364-26.497-5.878-34.107-38.385-53.873-57.048-21.079-19.903-58.659-25.492-63.815-54.075-5.394-29.907 16.645-58.633 39.995-77.983 21.403-17.737 49.971-20.882 77.693-19.544z" fill="#FFE7E0" fill-opacity=".5"/></g><ellipse cx="146.548" cy="89.645" rx="23.064" ry="22.645" fill="#E5876C"/><path d="M181.097 171c6.627 0 12.149-5.456 10.488-11.872a47.19 47.19 0 00-2.032-6.102 46.998 46.998 0 00-10.09-15.237 46.524 46.524 0 00-15.101-10.182 46.199 46.199 0 00-17.814-3.575 46.198 46.198 0 00-17.813 3.575 46.524 46.524 0 00-15.101 10.182 47 47 0 00-10.091 15.237 47.339 47.339 0 00-2.031 6.102C99.85 165.544 105.373 171 112 171h69.097z" fill="#E5876C"/><defs><filter id="filter0_f_169_3049" x="0" y="0" width="263" height="259" filterUnits="userSpaceOnUse" color-interpolation-filters="sRGB"><feFlood flood-opacity="0" result="BackgroundImageFix"/><feBlend in="SourceGraphic" in2="BackgroundImageFix" result="shape"/><feGaussianBlur stdDeviation="12" result="effect1_foregroundBlur_169_3049"/></filter></defs></svg>