<svg width="311" height="255" fill="none" xmlns="http://www.w3.org/2000/svg"><g filter="url(#filter0_f_302_1749)"><path fill-rule="evenodd" clip-rule="evenodd" d="M162.879 24.015c26.138-.617 47.012 17.67 67.253 34.235 23.622 19.331 55.75 36.793 56.838 67.314 1.099 30.821-28.369 52.339-51.862 72.295-20.989 17.829-44.708 32.427-72.229 33.114-28.202.703-53.451-12.345-75.92-29.418-27.197-20.664-65.668-41.936-62.808-75.991 2.854-34 47.063-44.068 74.578-64.21 20.757-15.193 38.443-36.731 64.15-37.339z" fill="#FFE7E0" fill-opacity=".5"/></g><path fill-rule="evenodd" clip-rule="evenodd" d="M157.727 117.182V88.546A9.542 9.542 0 00148.182 79h-28.637A9.545 9.545 0 00110 88.546v28.636a9.545 9.545 0 009.545 9.545h28.637a9.541 9.541 0 006.749-2.796 9.541 9.541 0 002.796-6.749zm-38.182 19.091h28.637a9.541 9.541 0 016.749 2.796 9.541 9.541 0 012.796 6.749v28.637a9.545 9.545 0 01-9.545 9.545h-28.637a9.545 9.545 0 01-9.545-9.545v-28.637a9.545 9.545 0 019.545-9.545zM176.818 79h28.637A9.545 9.545 0 01215 88.546v28.636a9.545 9.545 0 01-9.545 9.545h-28.637a9.541 9.541 0 01-6.749-2.796 9.541 9.541 0 01-2.796-6.749V88.546A9.542 9.542 0 01176.818 79zm-1.398 84.511a4.773 4.773 0 01-8.147-3.375v-19.091a4.772 4.772 0 019.545 0v19.091c0 1.266-.503 2.48-1.398 3.375zm20.489-17.693h14.318a4.773 4.773 0 010 9.546h-14.318v23.863a4.773 4.773 0 01-4.773 4.773h-19.091a4.772 4.772 0 010-9.545h14.319v-33.41a4.772 4.772 0 019.545 0v4.773zm10.943 20.489a4.775 4.775 0 016.75 0 4.773 4.773 0 011.398 3.375v9.545a4.773 4.773 0 01-9.545 0v-9.545c0-1.266.502-2.48 1.397-3.375zM123 87a5 5 0 00-5 5v22a5 5 0 005 5h22a5 5 0 005-5V92a5 5 0 00-5-5h-22zm-5 62a5 5 0 015-5h22a5 5 0 015 5v22a5 5 0 01-5 5h-22a5 5 0 01-5-5v-22zm62-62a5 5 0 00-5 5v22a5 5 0 005 5h22a5 5 0 005-5V92a5 5 0 00-5-5h-22z" fill="#E5876C"/><rect x="127" y="96" width="14" height="14" rx="3" fill="#E5876C"/><rect x="184" y="96" width="14" height="14" rx="3" fill="#E5876C"/><rect x="127" y="153" width="14" height="14" rx="3" fill="#E5876C"/><defs><filter id="filter0_f_302_1749" x="0" y="0" width="311" height="255" filterUnits="userSpaceOnUse" color-interpolation-filters="sRGB"><feFlood flood-opacity="0" result="BackgroundImageFix"/><feBlend in="SourceGraphic" in2="BackgroundImageFix" result="shape"/><feGaussianBlur stdDeviation="12" result="effect1_foregroundBlur_302_1749"/></filter></defs></svg>