<svg width="87" height="20" fill="none" xmlns="http://www.w3.org/2000/svg"><path d="M4.7 15V3.44H.22V.9H12.3v2.54H7.82V15H4.7zm12.317.22c-1.08 0-2.02-.213-2.82-.64a4.695 4.695 0 01-1.84-1.84c-.427-.787-.64-1.727-.64-2.82 0-1.08.213-2.013.64-2.8a4.561 4.561 0 011.84-1.82c.8-.427 1.74-.64 2.82-.64 1.08 0 2.02.213 2.82.64a4.403 4.403 0 011.84 1.82c.44.787.66 1.72.66 2.8 0 1.093-.22 2.033-.66 2.82a4.529 4.529 0 01-1.84 1.84c-.8.427-1.74.64-2.82.64zm0-2.28c.693 0 1.24-.247 1.64-.74.413-.493.62-1.253.62-2.28s-.207-1.78-.62-2.26c-.4-.48-.947-.72-1.64-.72-.694 0-1.247.24-1.66.72-.4.48-.6 1.233-.6 2.26 0 1.027.2 1.787.6 2.28.413.493.966.74 1.66.74zm12.09 6.54c-.973 0-1.84-.1-2.6-.3a6.672 6.672 0 01-2.04-.86l.58-2.16a5.7 5.7 0 001.18.58c.427.16.86.273 1.3.34.453.08.9.12 1.34.12.893 0 1.56-.213 2-.64.44-.427.66-1.033.66-1.82v-2.1h.2c-.213.64-.64 1.153-1.28 1.54s-1.36.58-2.16.58c-.907 0-1.7-.207-2.38-.62-.667-.413-1.187-1-1.56-1.76s-.56-1.653-.56-2.68c0-1.027.187-1.92.56-2.68.373-.76.893-1.34 1.56-1.74.68-.413 1.473-.62 2.38-.62.813 0 1.527.193 2.14.58.627.373 1.047.873 1.26 1.5l-.16-.08.2-1.8h2.92a22.304 22.304 0 00-.16 2.64v6.9c0 1.64-.46 2.893-1.38 3.76-.92.88-2.253 1.32-4 1.32zm.08-7c.706 0 1.266-.24 1.68-.72.413-.48.62-1.167.62-2.06s-.207-1.573-.62-2.04c-.414-.48-.974-.72-1.68-.72-.734 0-1.314.24-1.74.72-.413.467-.62 1.147-.62 2.04s.206 1.58.62 2.06c.427.48 1.006.72 1.74.72zm12.856 2.74c-1.76 0-3.133-.473-4.12-1.42-.986-.947-1.48-2.233-1.48-3.86 0-1.053.207-1.973.62-2.76a4.678 4.678 0 011.76-1.84c.76-.453 1.647-.68 2.66-.68 1 0 1.834.213 2.5.64.68.427 1.187 1.027 1.52 1.8.347.76.52 1.647.52 2.66v.7h-7.1v-1.5h4.9l-.34.28c0-.84-.173-1.473-.52-1.9-.333-.44-.82-.66-1.46-.66-.706 0-1.253.26-1.64.78-.373.52-.56 1.267-.56 2.24v.32c0 .987.24 1.72.72 2.2.493.48 1.2.72 2.12.72.547 0 1.06-.067 1.54-.2.493-.147.96-.373 1.4-.68l.84 2a5.698 5.698 0 01-1.76.86c-.653.2-1.36.3-2.12.3zm10.578 0c-1.32 0-2.314-.327-2.98-.98-.667-.667-1-1.66-1-2.98V7.12h-1.92V4.86h1.92V2.38l3.02-.74v3.22h2.6v2.26h-2.6v3.98c0 .64.133 1.08.4 1.32.266.24.606.36 1.02.36.253 0 .46-.013.62-.04a4.84 4.84 0 00.54-.16v2.34c-.254.107-.52.18-.8.22a4.38 4.38 0 01-.82.08zm3.19-.22V.28h3.02v6.48h-.3c.32-.68.793-1.2 1.42-1.56.626-.36 1.346-.54 2.16-.54 1.186 0 2.073.347 2.66 1.04.586.68.88 1.727.88 3.14V15h-3.02V8.98c0-.707-.134-1.213-.4-1.52-.254-.307-.654-.46-1.2-.46-.667 0-1.2.207-1.6.62-.4.413-.6.967-.6 1.66V15h-3.02zm17.365.22c-1.76 0-3.133-.473-4.12-1.42-.987-.947-1.48-2.233-1.48-3.86 0-1.053.207-1.973.62-2.76a4.678 4.678 0 011.76-1.84c.76-.453 1.647-.68 2.66-.68 1 0 1.833.213 2.5.64.68.427 1.187 1.027 1.52 1.8.347.76.52 1.647.52 2.66v.7h-7.1v-1.5h4.9l-.34.28c0-.84-.173-1.473-.52-1.9-.333-.44-.82-.66-1.46-.66-.707 0-1.253.26-1.64.78-.373.52-.56 1.267-.56 2.24v.32c0 .987.24 1.72.72 2.2.493.48 1.2.72 2.12.72.547 0 1.06-.067 1.54-.2.493-.147.96-.373 1.4-.68l.84 2a5.698 5.698 0 01-1.76.86c-.653.2-1.36.3-2.12.3zm5.876-.22V7.54c0-.44-.013-.887-.04-1.34-.013-.453-.047-.9-.1-1.34h2.9l.34 2.96h-.46c.133-.72.347-1.313.64-1.78.307-.467.68-.813 1.12-1.04.453-.227.967-.34 1.54-.34.253 0 .453.013.6.04.147.013.293.047.44.1l-.02 2.66a2.85 2.85 0 00-.72-.22 3.54 3.54 0 00-.72-.06c-.56 0-1.027.107-1.4.32-.36.213-.633.527-.82.94-.173.413-.26.913-.26 1.5V15h-3.04z" fill="#353535"/></svg>